<svg width="172" height="59" viewBox="0 0 172 59" fill="none" xmlns="http://www.w3.org/2000/svg">
<path d="M0 29.5C0 13.2076 13.2076 0 29.5 0H165.644C167.6 0 168.393 2.51936 166.789 3.63966L141.501 21.3017C135.803 25.2818 135.803 33.7182 141.501 37.6983L166.789 55.3603C168.393 56.4806 167.6 59 165.644 59H29.5C13.2076 59 0 45.7924 0 29.5Z" fill="#FF1640"/>
<path d="M20.95 37.4C18.6 37.4 16.6167 36.9667 15 36.1L16.25 32.225C17.9667 32.8417 19.5 33.15 20.85 33.15C21.5833 33.15 22.1167 33.0667 22.45 32.9C22.8 32.7167 22.975 32.45 22.975 32.1C22.975 31.8667 22.8833 31.6667 22.7 31.5C22.5167 31.3167 22.15 31.1167 21.6 30.9C21.05 30.6833 20.225 30.4167 19.125 30.1C17.775 29.7 16.725 29.05 15.975 28.15C15.225 27.2333 14.85 26.1833 14.85 25C14.85 23.1667 15.45 21.7833 16.65 20.85C17.8667 19.9 19.5 19.425 21.55 19.425C22.6167 19.425 23.6667 19.5417 24.7 19.775C25.7333 19.9917 26.65 20.3167 27.45 20.75L26.1 24.525C25.1667 24.2083 24.35 23.9833 23.65 23.85C22.9667 23.7 22.3 23.625 21.65 23.625C20.55 23.625 20 23.925 20 24.525C20 24.825 20.175 25.0833 20.525 25.3C20.8917 25.5 21.6333 25.7583 22.75 26.075C24.5 26.5417 25.825 27.2583 26.725 28.225C27.625 29.175 28.075 30.3167 28.075 31.65C28.075 33.5 27.475 34.925 26.275 35.925C25.075 36.9083 23.3 37.4 20.95 37.4ZM36.5199 37.2C35.1366 37.2 33.9033 36.925 32.8199 36.375C31.7533 35.8083 30.9199 35.0417 30.3199 34.075C29.7199 33.0917 29.4199 31.9833 29.4199 30.75C29.4199 29.4833 29.7283 28.3583 30.3449 27.375C30.9616 26.3917 31.7949 25.6333 32.8449 25.1C33.8949 24.5667 35.0616 24.3 36.3449 24.3C37.5783 24.3 38.6283 24.575 39.4949 25.125C40.3783 25.6583 41.0366 26.3917 41.4699 27.325C41.9033 28.2417 42.1199 29.275 42.1199 30.425C42.1199 30.725 42.1033 30.9417 42.0699 31.075L34.5699 32.05C34.7699 32.6333 35.0949 33.0583 35.5449 33.325C35.9949 33.575 36.5866 33.7 37.3199 33.7C38.4533 33.7 39.6783 33.4083 40.9949 32.825L41.6199 36.175C40.0699 36.8583 38.3699 37.2 36.5199 37.2ZM38.2449 28.9C37.9783 27.85 37.3449 27.325 36.3449 27.325C35.7449 27.325 35.2699 27.55 34.9199 28C34.5699 28.45 34.3866 29.0333 34.3699 29.75L38.2449 28.9ZM43.9365 24.65H48.9615V27.2C49.9282 25.2667 51.4615 24.3 53.5615 24.3C55.1615 24.3 56.4115 24.875 57.3115 26.025C58.2282 27.1583 58.6865 28.7333 58.6865 30.75V37H53.4365V30.225C53.4365 29.5083 53.2782 28.9583 52.9615 28.575C52.6615 28.1917 52.2365 28 51.6865 28C51.2865 28 50.8949 28.1333 50.5115 28.4C50.1282 28.65 49.8115 29.0167 49.5615 29.5C49.3282 29.9833 49.2115 30.5333 49.2115 31.15V37H43.9365V24.65ZM76.1258 37.4C73.7758 37.4 71.7924 36.9667 70.1758 36.1L71.4258 32.225C73.1424 32.8417 74.6758 33.15 76.0258 33.15C76.7591 33.15 77.2924 33.0667 77.6258 32.9C77.9758 32.7167 78.1508 32.45 78.1508 32.1C78.1508 31.8667 78.0591 31.6667 77.8758 31.5C77.6924 31.3167 77.3258 31.1167 76.7758 30.9C76.2258 30.6833 75.4008 30.4167 74.3008 30.1C72.9508 29.7 71.9008 29.05 71.1508 28.15C70.4008 27.2333 70.0258 26.1833 70.0258 25C70.0258 23.1667 70.6258 21.7833 71.8258 20.85C73.0424 19.9 74.6758 19.425 76.7258 19.425C77.7924 19.425 78.8424 19.5417 79.8758 19.775C80.9091 19.9917 81.8258 20.3167 82.6258 20.75L81.2758 24.525C80.3424 24.2083 79.5258 23.9833 78.8258 23.85C78.1424 23.7 77.4758 23.625 76.8258 23.625C75.7258 23.625 75.1758 23.925 75.1758 24.525C75.1758 24.825 75.3508 25.0833 75.7008 25.3C76.0674 25.5 76.8091 25.7583 77.9258 26.075C79.6758 26.5417 81.0008 27.2583 81.9008 28.225C82.8008 29.175 83.2508 30.3167 83.2508 31.65C83.2508 33.5 82.6508 34.925 81.4508 35.925C80.2508 36.9083 78.4758 37.4 76.1258 37.4ZM90.7457 37.2C89.6624 37.2 88.6457 36.9167 87.6957 36.35C86.7624 35.7667 86.0124 34.9833 85.4457 34C84.879 33 84.5957 31.8917 84.5957 30.675C84.5957 29.475 84.879 28.3917 85.4457 27.425C86.0124 26.4417 86.7707 25.675 87.7207 25.125C88.6707 24.575 89.679 24.3 90.7457 24.3C91.6124 24.3 92.4124 24.5417 93.1457 25.025C93.8957 25.5083 94.4624 26.2333 94.8457 27.2V24.3H100.096V37H94.8457V34.675C94.0124 36.3583 92.6457 37.2 90.7457 37.2ZM92.3707 33.25C93.0374 33.25 93.604 33.0167 94.0707 32.55C94.554 32.0667 94.8124 31.5 94.8457 30.85V30.65C94.8124 29.9833 94.5457 29.4167 94.0457 28.95C93.5624 28.4833 93.004 28.25 92.3707 28.25C91.6707 28.25 91.0707 28.5 90.5707 29C90.0874 29.4833 89.8457 30.0667 89.8457 30.75C89.8457 31.45 90.0957 32.0417 90.5957 32.525C91.0957 33.0083 91.6874 33.25 92.3707 33.25ZM106.953 37.2C105.203 37.2 103.67 36.9417 102.353 36.425L102.928 33.45C104.128 33.8833 105.295 34.1 106.428 34.1C107.261 34.1 107.678 33.8667 107.678 33.4C107.678 33.1667 107.553 32.975 107.303 32.825C107.07 32.675 106.62 32.5417 105.953 32.425C104.57 32.1583 103.57 31.7083 102.953 31.075C102.353 30.4417 102.053 29.5417 102.053 28.375C102.12 27.0583 102.645 26.05 103.628 25.35C104.611 24.65 105.953 24.3 107.653 24.3C108.52 24.3 109.261 24.3583 109.878 24.475C110.511 24.575 111.086 24.75 111.603 25L111.078 27.975C110.595 27.7917 110.061 27.65 109.478 27.55C108.911 27.45 108.436 27.4 108.053 27.4C107.486 27.4 107.095 27.4583 106.878 27.575C106.661 27.6917 106.553 27.85 106.553 28.05C106.553 28.4167 106.97 28.675 107.803 28.825C109.32 29.0917 110.453 29.5583 111.203 30.225C111.953 30.8917 112.328 31.8 112.328 32.95C112.328 34.2667 111.861 35.3083 110.928 36.075C110.011 36.825 108.686 37.2 106.953 37.2ZM114.176 20.525L119.451 19.75V27.05C119.817 26.1667 120.367 25.4917 121.101 25.025C121.851 24.5417 122.751 24.3 123.801 24.3C125.401 24.3 126.651 24.875 127.551 26.025C128.467 27.1583 128.926 28.7333 128.926 30.75V37H123.676V30.225C123.676 29.5083 123.517 28.9583 123.201 28.575C122.901 28.1917 122.476 28 121.926 28C121.526 28 121.134 28.1333 120.751 28.4C120.367 28.65 120.051 29.0167 119.801 29.5C119.567 29.9833 119.451 30.5333 119.451 31.15V37H114.176V20.525Z" fill="white"/>
</svg>
