<svg width="172" height="59" viewBox="0 0 172 59" fill="none" xmlns="http://www.w3.org/2000/svg">
<path d="M0 29.5C0 13.2076 13.2076 0 29.5 0H165.644C167.6 0 168.393 2.51936 166.789 3.63966L141.501 21.3017C135.803 25.2818 135.803 33.7182 141.501 37.6983L166.789 55.3603C168.393 56.4806 167.6 59 165.644 59H29.5C13.2076 59 0 45.7924 0 29.5Z" fill="#FF1640"/>
<path d="M67.95 37.4C65.6 37.4 63.6167 36.9667 62 36.1L63.25 32.225C64.9667 32.8417 66.5 33.15 67.85 33.15C68.5833 33.15 69.1167 33.0667 69.45 32.9C69.8 32.7167 69.975 32.45 69.975 32.1C69.975 31.8667 69.8833 31.6667 69.7 31.5C69.5167 31.3167 69.15 31.1167 68.6 30.9C68.05 30.6833 67.225 30.4167 66.125 30.1C64.775 29.7 63.725 29.05 62.975 28.15C62.225 27.2333 61.85 26.1833 61.85 25C61.85 23.1667 62.45 21.7833 63.65 20.85C64.8667 19.9 66.5 19.425 68.55 19.425C69.6167 19.425 70.6667 19.5417 71.7 19.775C72.7333 19.9917 73.65 20.3167 74.45 20.75L73.1 24.525C72.1667 24.2083 71.35 23.9833 70.65 23.85C69.9667 23.7 69.3 23.625 68.65 23.625C67.55 23.625 67 23.925 67 24.525C67 24.825 67.175 25.0833 67.525 25.3C67.8917 25.5 68.6333 25.7583 69.75 26.075C71.5 26.5417 72.825 27.2583 73.725 28.225C74.625 29.175 75.075 30.3167 75.075 31.65C75.075 33.5 74.475 34.925 73.275 35.925C72.075 36.9083 70.3 37.4 67.95 37.4ZM83.5199 37.2C82.1366 37.2 80.9033 36.925 79.8199 36.375C78.7533 35.8083 77.9199 35.0417 77.3199 34.075C76.7199 33.0917 76.4199 31.9833 76.4199 30.75C76.4199 29.4833 76.7283 28.3583 77.3449 27.375C77.9616 26.3917 78.7949 25.6333 79.8449 25.1C80.8949 24.5667 82.0616 24.3 83.3449 24.3C84.5783 24.3 85.6283 24.575 86.4949 25.125C87.3783 25.6583 88.0366 26.3917 88.4699 27.325C88.9033 28.2417 89.1199 29.275 89.1199 30.425C89.1199 30.725 89.1033 30.9417 89.0699 31.075L81.5699 32.05C81.7699 32.6333 82.0949 33.0583 82.5449 33.325C82.9949 33.575 83.5866 33.7 84.3199 33.7C85.4533 33.7 86.6783 33.4083 87.9949 32.825L88.6199 36.175C87.0699 36.8583 85.3699 37.2 83.5199 37.2ZM85.2449 28.9C84.9783 27.85 84.3449 27.325 83.3449 27.325C82.7449 27.325 82.2699 27.55 81.9199 28C81.5699 28.45 81.3866 29.0333 81.3699 29.75L85.2449 28.9ZM90.9365 24.65H95.9615V27.2C96.9282 25.2667 98.4615 24.3 100.562 24.3C102.162 24.3 103.412 24.875 104.312 26.025C105.228 27.1583 105.687 28.7333 105.687 30.75V37H100.437V30.225C100.437 29.5083 100.278 28.9583 99.9615 28.575C99.6615 28.1917 99.2365 28 98.6865 28C98.2865 28 97.8949 28.1333 97.5115 28.4C97.1282 28.65 96.8115 29.0167 96.5615 29.5C96.3282 29.9833 96.2115 30.5333 96.2115 31.15V37H90.9365V24.65Z" fill="white"/>
</svg>
